<?xml version="1.0" encoding="utf-8"?>
<!-- Generator: Adobe Illustrator 24.1.3, SVG Export Plug-In . SVG Version: 6.00 Build 0)  -->
<svg version="1.1" id="Layer_1" xmlns="http://www.w3.org/2000/svg" xmlns:xlink="http://www.w3.org/1999/xlink" x="0px" y="0px"
	 viewBox="0 0 309.59 344.23" style="enable-background:new 0 0 309.59 344.23;" xml:space="preserve">
<style type="text/css">
	.st0{fill:#AACAF9;}
	.st1{fill:#2D78D3;}
	.st2{fill:#FFFFFF;}
</style>
<g>
	<g>
		<polygon points="183.06,158.39 183.06,217.05 207.66,202.84 207.66,144.19 		"/>
	</g>
	<g>
		<polygon points="195.48,239.4 247.66,209.93 247.42,238.34 195.24,267.81 		"/>
	</g>
	<g>
		<polygon points="234.02,129.07 234.02,188.13 258.62,173.92 258.62,114.86 		"/>
	</g>
	<path d="M309.47,84.91L167.95,3.89c-9.01-5.16-20.07-5.18-29.1-0.07L14.92,73.98C5.7,79.2,0,88.98,0,99.57v144.01
		c0,10.61,5.71,20.39,14.95,25.61l126.13,71.23c9,5.08,20.01,5.07,29-0.04l124.64-70.85c9.2-5.23,14.88-14.99,14.88-25.57V84.84
		L309.47,84.91z M284.99,246.47l-129.17,72.11l-0.01-145.84L24.1,98l129.47-73.21l131.43,74.58V246.47z"/>
</g>
</svg>
